<svg width="24" height="24" viewBox="0 0 24 24" fill="none" xmlns="http://www.w3.org/2000/svg">
<path d="M16.4999 1.99999C14.0147 1.99999 11.9999 4.0147 11.9999 6.49997C11.9999 8.98524 14.0147 11 16.4999 11C18.9852 11 20.9999 8.98524 20.9999 6.49997C20.9999 4.0147 18.9852 1.99999 16.4999 1.99999Z" fill="black"/>
<path d="M12.0317 1.77925C10.7805 2.96397 9.99996 4.64082 9.99996 6.49997C9.99996 7.69706 10.3236 8.81857 10.8881 9.78178C10.4509 9.92342 9.98435 9.99996 9.49996 9.99996C7.01469 9.99996 4.99998 7.98525 4.99998 5.49998C4.99998 3.01471 7.01469 0.999996 9.49996 0.999996C10.4388 0.999996 11.3105 1.28749 12.0317 1.77925Z" fill="black"/>
<path d="M17.7088 15.8932C17.7088 16.6845 17.1854 17.3538 16.464 17.5775L16.9279 17.556C17.4348 17.556 17.9278 17.3965 18.3329 17.1004L21.1618 15.0365C21.8678 14.5217 22.856 14.59 23.4801 15.1971C24.1733 15.8714 24.1733 16.9637 23.4801 17.6368L21.0529 19.998C20.3995 20.6335 19.5659 21.0675 18.6596 21.244L15.2289 21.9115C14.5486 22.0436 13.8473 22.0277 13.174 21.8636L10.0711 21.1096C9.69998 21.0185 9.31944 20.973 8.93656 20.973C8.53006 20.973 8.32682 20.973 8.16375 20.9147C7.8813 20.8139 7.65902 20.5916 7.55819 20.3092C7.49997 20.1461 7.49997 19.9429 7.49997 19.5364V16.1072C7.49997 15.8214 7.49997 15.6785 7.53667 15.5468C7.56918 15.4301 7.62262 15.3203 7.69437 15.2228C7.77537 15.1126 7.88784 15.0245 8.11277 14.8481L9.29836 13.9186C9.29836 13.9186 11.2631 12.9999 12.3485 12.9999C12.7981 12.9999 13.2454 13.0547 13.6822 13.1629L16.3658 13.8301C17.155 14.0257 17.7088 14.7313 17.7088 15.5405V15.8932Z" fill="black"/>
<path fill-rule="evenodd" clip-rule="evenodd" d="M3.47352 12.9999C3.48233 12.9999 3.49116 12.9999 3.49999 12.9999C3.50882 12.9999 3.51765 12.9999 3.52646 12.9999C3.73651 12.9999 3.94113 12.9999 4.11521 13.0118C4.30558 13.0248 4.53131 13.0552 4.76535 13.1522C5.2554 13.3552 5.64475 13.7445 5.84774 14.2346C5.94468 14.4686 5.97515 14.6943 5.98814 14.8847C6.00002 15.0588 6 15.2634 5.99998 15.4734C5.99998 15.4823 5.99998 15.4911 5.99998 15.4999L5.99998 20.5264C6 20.7364 6.00002 20.941 5.98814 21.1151C5.97515 21.3055 5.94468 21.5312 5.84774 21.7653C5.64475 22.2553 5.2554 22.6447 4.76535 22.8476C4.53131 22.9446 4.30558 22.9751 4.11521 22.9881C3.94113 22.9999 3.73651 22.9999 3.52647 22.9999H3.47351C3.26347 22.9999 3.05884 22.9999 2.88476 22.9881C2.69439 22.9751 2.46867 22.9446 2.23463 22.8476C1.74457 22.6447 1.35523 22.2553 1.15224 21.7653C1.0553 21.5312 1.02482 21.3055 1.01183 21.1151C0.999956 20.941 0.999976 20.7364 0.999997 20.5264L0.999999 15.4999C0.999999 15.4911 0.999998 15.4823 0.999997 15.4734C0.999976 15.2634 0.999956 15.0588 1.01183 14.8847C1.02482 14.6943 1.0553 14.4686 1.15224 14.2346C1.35523 13.7445 1.74457 13.3552 2.23463 13.1522C2.46867 13.0552 2.69439 13.0248 2.88476 13.0118C3.05885 12.9999 3.26347 12.9999 3.47352 12.9999Z" fill="black"/>
</svg>
